<?xml version="1.0" encoding="UTF-8" standalone="no"?>
<!-- Created with Inkscape (http://www.inkscape.org/) -->

<svg
   xmlns:dc="http://purl.org/dc/elements/1.1/"
   xmlns:cc="http://creativecommons.org/ns#"
   xmlns:rdf="http://www.w3.org/1999/02/22-rdf-syntax-ns#"
   xmlns:svg="http://www.w3.org/2000/svg"
   xmlns="http://www.w3.org/2000/svg"
   xmlns:sodipodi="http://sodipodi.sourceforge.net/DTD/sodipodi-0.dtd"
   xmlns:inkscape="http://www.inkscape.org/namespaces/inkscape"
   width="100"
   height="100"
   id="svg2"
   version="1.1"
   inkscape:version="0.48.2 r9819"
   sodipodi:docname="donottemplate.svg">
  <defs
     id="defs4">
    <clipPath
       id="clip0">
      <rect
         y="0"
         x="0"
         width="717"
         height="610"
         id="rect3992" />
    </clipPath>
  </defs>
  <sodipodi:namedview
     id="base"
     pagecolor="#ffffff"
     bordercolor="#666666"
     borderopacity="1.0"
     inkscape:pageopacity="0.0"
     inkscape:pageshadow="2"
     inkscape:zoom="0.7"
     inkscape:cx="119.75651"
     inkscape:cy="80.601647"
     inkscape:document-units="px"
     inkscape:current-layer="layer4"
     showgrid="false"
     inkscape:window-width="1280"
     inkscape:window-height="968"
     inkscape:window-x="-4"
     inkscape:window-y="-4"
     inkscape:window-maximized="1" />
  <metadata
     id="metadata7">
    <rdf:RDF>
      <cc:Work
         rdf:about="">
        <dc:format>image/svg+xml</dc:format>
        <dc:type
           rdf:resource="http://purl.org/dc/dcmitype/StillImage" />
        <dc:title></dc:title>
      </cc:Work>
    </rdf:RDF>
  </metadata>
  <g
     inkscape:groupmode="layer"
     id="layer4"
     inkscape:label="What">
    <g
       id="surface0"
       clip-path="url(#clip0)"
       transform="matrix(0.12104057,0,0,0.12104057,6.6069505,12.368342)">
      <path
         style="fill:none;stroke:#ffffff;stroke-width:0.1;stroke-linecap:butt;stroke-linejoin:miter;stroke-miterlimit:10"
         d="M 0,0 717,0 717,610 0,610 0,0 z m 0,0"
         id="path3995"
         inkscape:connector-curvature="0" />
      <path
         style="fill:#ffffff;fill-rule:nonzero;stroke:none"
         d="M 0,0 717,0 717,610 0,610 0,0 z m 0,0"
         id="path3997"
         inkscape:connector-curvature="0" />
      <path
         style="fill:none;stroke:#000000;stroke-width:0.1;stroke-linecap:butt;stroke-linejoin:miter;stroke-miterlimit:10"
         d="m 137.75047,139.25215 c 146.50008,-0.002 292.99997,-0.003 439.50017,4.7e-4 6.9e-4,110.49839 -10e-6,220.99659 3.5e-4,331.49509 -146.50181,0.001 -293.00334,0.004 -439.50503,-0.002 0.008,-110.49811 -9.5e-4,-220.99592 0.005,-331.49391 z m 0,0"
         id="path3999"
         inkscape:connector-curvature="0" />
      <path
         style="fill:#000000;fill-rule:nonzero;stroke:none"
         d="m 137.75047,139.25215 c 146.50008,-0.002 292.99997,-0.003 439.50017,4.7e-4 6.9e-4,110.49839 -10e-6,220.99659 3.5e-4,331.49509 -146.50181,0.001 -293.00334,0.004 -439.50503,-0.002 0.008,-110.49811 -9.5e-4,-220.99592 0.005,-331.49391 z m 0,0"
         id="path4001"
         inkscape:connector-curvature="0" />
      <path
         style="fill:none;stroke:#ffffff;stroke-width:0.1;stroke-linecap:butt;stroke-linejoin:miter;stroke-miterlimit:10"
         d="m 189.88168,170.00427 c 112.49338,-0.007 224.98662,-0.007 337.48015,1.9e-4 -12.60391,12.53709 -24.91817,25.3544 -37.57931,37.83514 -15.42659,15.24516 -30.46437,30.86679 -45.87755,46.12465 -8.7675,8.88945 -17.80156,17.52028 -26.35065,26.62057 -15.3233,15.36496 -30.76308,30.62458 -45.97749,46.09073 -7.7349,6.82082 -21.03169,6.56401 -28.02169,-1.22105 -51.29362,-51.75128 -102.39003,-103.69 -153.67346,-155.45023 z m 0,0"
         id="path4003"
         inkscape:connector-curvature="0" />
      <path
         style="fill:#ffffff;fill-rule:nonzero;stroke:none"
         d="m 189.88168,170.00427 c 112.49338,-0.007 224.98662,-0.007 337.48015,1.9e-4 -12.60391,12.53709 -24.91817,25.3544 -37.57931,37.83514 -15.42659,15.24516 -30.46437,30.86679 -45.87755,46.12465 -8.7675,8.88945 -17.80156,17.52028 -26.35065,26.62057 -15.3233,15.36496 -30.76308,30.62458 -45.97749,46.09073 -7.7349,6.82082 -21.03169,6.56401 -28.02169,-1.22105 -51.29362,-51.75128 -102.39003,-103.69 -153.67346,-155.45023 z m 0,0"
         id="path4005"
         inkscape:connector-curvature="0" />
      <path
         style="fill:none;stroke:#ffffff;stroke-width:0.1;stroke-linecap:butt;stroke-linejoin:miter;stroke-miterlimit:10"
         d="m 168.47607,417.88182 c 0.036,-75.17778 0.0377,-150.35571 -8.5e-4,-225.53331 37.03094,37.22166 73.83554,74.66469 110.75014,111.99922 -36.75829,37.99341 -73.94722,75.58187 -110.74929,113.53409 z m 0,0"
         id="path4007"
         inkscape:connector-curvature="0" />
      <path
         style="fill:#ffffff;fill-rule:nonzero;stroke:none"
         d="m 168.47607,417.88182 c 0.036,-75.17778 0.0377,-150.35571 -8.5e-4,-225.53331 37.03094,37.22166 73.83554,74.66469 110.75014,111.99922 -36.75829,37.99341 -73.94722,75.58187 -110.74929,113.53409 z m 0,0"
         id="path4009"
         inkscape:connector-curvature="0" />
      <path
         style="fill:none;stroke:#ffffff;stroke-width:0.1;stroke-linecap:butt;stroke-linejoin:miter;stroke-miterlimit:10"
         d="m 473.71526,267.66429 c 24.40115,-24.20433 48.3975,-48.80205 72.7868,-73.01756 -10e-4,74.32641 10e-4,148.65268 -10e-4,222.97928 -36.77174,-37.39458 -73.28903,-75.0383 -110.00537,-112.48578 12.41625,-12.48293 24.96802,-24.83348 37.21984,-37.47594 z m 0,0"
         id="path4011"
         inkscape:connector-curvature="0" />
      <path
         style="fill:#ffffff;fill-rule:nonzero;stroke:none"
         d="m 473.71526,267.66429 c 24.40115,-24.20433 48.3975,-48.80205 72.7868,-73.01756 -10e-4,74.32641 10e-4,148.65268 -10e-4,222.97928 -36.77174,-37.39458 -73.28903,-75.0383 -110.00537,-112.48578 12.41625,-12.48293 24.96802,-24.83348 37.21984,-37.47594 z m 0,0"
         id="path4013"
         inkscape:connector-curvature="0" />
      <path
         style="fill:none;stroke:#ffffff;stroke-width:0.1;stroke-linecap:butt;stroke-linejoin:miter;stroke-miterlimit:10"
         d="m 189.88109,439.99557 c 37.10914,-37.80317 74.05217,-75.76702 111.12259,-113.60575 7.86537,7.66345 15.24807,15.80551 23.21847,23.36378 18.71103,17.00185 50.48529,16.74977 68.72667,-0.82851 7.26268,-7.26663 14.52324,-14.53558 21.79408,-21.79437 36.92084,37.49693 73.55578,75.27007 110.37784,112.86385 -111.74669,0.01 -223.4931,0.008 -335.23965,10e-4 z m 0,0"
         id="path4015"
         inkscape:connector-curvature="0" />
      <path
         style="fill:#ffffff;fill-rule:nonzero;stroke:none"
         d="m 189.88109,439.99557 c 37.10914,-37.80317 74.05217,-75.76702 111.12259,-113.60575 7.86537,7.66345 15.24807,15.80551 23.21847,23.36378 18.71103,17.00185 50.48529,16.74977 68.72667,-0.82851 7.26268,-7.26663 14.52324,-14.53558 21.79408,-21.79437 36.92084,37.49693 73.55578,75.27007 110.37784,112.86385 -111.74669,0.01 -223.4931,0.008 -335.23965,10e-4 z m 0,0"
         id="path4017"
         inkscape:connector-curvature="0" />
    </g>
  </g>
  <g
     inkscape:groupmode="layer"
     id="layer3"
     inkscape:label="DoNot"
     style="display:inline">
    <path
       transform="translate(0.23357729,0.123564)"
       sodipodi:type="arc"
       style="fill:none;stroke-width:5;stroke-miterlimit:4;stroke-dasharray:none"
       id="path3781"
       sodipodi:cx="52.022858"
       sodipodi:cy="47.472069"
       sodipodi:rx="52.022858"
       sodipodi:ry="51.51778"
       d="m 104.04572,47.472069 a 52.022858,51.51778 0 1 1 -104.04572,0 52.022858,51.51778 0 1 1 104.04572,0 z" />
    <path
       sodipodi:type="arc"
       style="fill:none;stroke:#000000;stroke-width:5;stroke-miterlimit:4;stroke-opacity:1;stroke-dasharray:none"
       id="path3783"
       sodipodi:cx="36.996838"
       sodipodi:cy="28.910515"
       sodipodi:rx="31.440998"
       sodipodi:ry="25.885159"
       d="m 68.437836,28.910515 a 31.440998,25.885159 0 1 1 -62.8819965,0 31.440998,25.885159 0 1 1 62.8819965,0 z"
       transform="matrix(1.4693519,0,0,1.7700909,-4.1252457,-0.67442)" />
    <path
       style="fill:none;stroke:#000000;stroke-width:5;stroke-linecap:butt;stroke-linejoin:miter;stroke-miterlimit:4;stroke-opacity:1;stroke-dasharray:none"
       d="M 18.921399,14.765674 C 81.550857,85.72889 81.550857,85.72889 81.550857,85.72889"
       id="path3785"
       inkscape:connector-curvature="0" />
  </g>
</svg>
