<?xml version="1.0" encoding="UTF-8"?>
<svg width="68px" height="48px" viewBox="0 0 68 48" version="1.1" xmlns="http://www.w3.org/2000/svg" xmlns:xlink="http://www.w3.org/1999/xlink">
    <!-- Generator: Sketch 51.1 (57501) - http://www.bohemiancoding.com/sketch -->
    <title>comms</title>
    <desc>Created with Sketch.</desc>
    <defs></defs>
    <g id="Find-Cases" stroke="none" stroke-width="1" fill="none" fill-rule="evenodd">
        <g id="Caselist---Individual-Case---Summary---empty-state" transform="translate(-642.000000, -1013.000000)">
            <g id="comms" transform="translate(642.000000, 1013.000000)">
                <path d="M51.808,38.0411765 L22,38.0411765 C19.9860118,38.0411765 18.3470588,36.4022235 18.3470588,34.3882353 L18.3470588,14.9058824 C18.3470588,12.8918941 19.9860118,11.2529412 22,11.2529412 L63.4,11.2529412 C65.4139882,11.2529412 67.0529412,12.8918941 67.0529412,14.9058824 L67.0529412,34.3882353 C67.0529412,36.4022235 65.4139882,38.0411765 63.4,38.0411765 L59.7470588,38.0411765 L59.7470588,47.965 L51.808,38.0411765" id="Fill-1" fill="#FFFFFF"></path>
                <path d="M10.6882353,30.1705882 L4.6,30.1705882 C2.58601176,30.1705882 0.947058824,28.5316353 0.947058824,26.5176471 L0.947058824,4.6 C0.947058824,2.58601176 2.58601176,0.947058824 4.6,0.947058824 L48.4352941,0.947058824 C50.4492824,0.947058824 52.0882353,2.58601176 52.0882353,4.6 L52.0882353,26.5176471 C52.0882353,28.5316353 50.4492824,30.1705882 48.4352941,30.1705882 L18.6272941,30.1705882 L10.6882353,40.0944118 L10.6882353,30.1705882" id="Fill-11" fill="#BAD2DF"></path>
            </g>
        </g>
    </g>
</svg>