<?xml version="1.0" encoding="UTF-8" standalone="no"?>
<!-- Created with Inkscape (http://www.inkscape.org/) -->

<svg
   xmlns:dc="http://purl.org/dc/elements/1.1/"
   xmlns:cc="http://creativecommons.org/ns#"
   xmlns:rdf="http://www.w3.org/1999/02/22-rdf-syntax-ns#"
   xmlns:svg="http://www.w3.org/2000/svg"
   xmlns="http://www.w3.org/2000/svg"
   xmlns:sodipodi="http://sodipodi.sourceforge.net/DTD/sodipodi-0.dtd"
   xmlns:inkscape="http://www.inkscape.org/namespaces/inkscape"
   width="100"
   height="100"
   id="svg2"
   version="1.1"
   inkscape:version="0.48.2 r9819"
   sodipodi:docname="contact-donotcall.svg"
   inkscape:label="DoNot">
  <defs
     id="defs4" />
  <sodipodi:namedview
     id="base"
     pagecolor="#ffffff"
     bordercolor="#666666"
     borderopacity="1.0"
     inkscape:pageopacity="0.0"
     inkscape:pageshadow="2"
     inkscape:zoom="3.959798"
     inkscape:cx="15.375557"
     inkscape:cy="13.119642"
     inkscape:document-units="px"
     inkscape:current-layer="layer1"
     showgrid="false"
     inkscape:window-width="1280"
     inkscape:window-height="968"
     inkscape:window-x="-4"
     inkscape:window-y="-4"
     inkscape:window-maximized="1" />
  <metadata
     id="metadata7">
    <rdf:RDF>
      <cc:Work
         rdf:about="">
        <dc:format>image/svg+xml</dc:format>
        <dc:type
           rdf:resource="http://purl.org/dc/dcmitype/StillImage" />
        <dc:title />
      </cc:Work>
    </rdf:RDF>
  </metadata>
  <path
     sodipodi:type="arc"
     style="fill:none;stroke-width:5;stroke-miterlimit:4;stroke-dasharray:none"
     id="path3781"
     sodipodi:cx="52.022858"
     sodipodi:cy="47.472069"
     sodipodi:rx="52.022858"
     sodipodi:ry="51.51778"
     d="m 104.04572,47.472069 a 52.022858,51.51778 0 1 1 -104.04572,0 52.022858,51.51778 0 1 1 104.04572,0 z" />
  <g
     id="g3789" />
  <g
     inkscape:groupmode="layer"
     id="layer1"
     inkscape:label="What"
     style="display:inline">
    <path
       transform="matrix(1.4693519,0,0,1.7700909,-4.4668507,-1.1743864)"
       d="m 68.437836,28.910515 a 31.440998,25.885159 0 1 1 -62.8819965,0 31.440998,25.885159 0 1 1 62.8819965,0 z"
       sodipodi:ry="25.885159"
       sodipodi:rx="31.440998"
       sodipodi:cy="28.910515"
       sodipodi:cx="36.996838"
       id="path3783"
       style="fill:none;stroke:#000000;stroke-width:5.0002282;stroke-miterlimit:4;stroke-opacity:1;stroke-dasharray:none"
       sodipodi:type="arc" />
    <path
       inkscape:connector-curvature="0"
       id="path3785"
       d="M 18.579795,14.265708 C 81.209253,85.228926 81.209253,85.228926 81.209253,85.228926"
       style="fill:none;stroke:#000000;stroke-width:8.9;stroke-linecap:butt;stroke-linejoin:miter;stroke-miterlimit:4;stroke-opacity:1;stroke-dasharray:none" />
  </g>
  <g
     inkscape:groupmode="layer"
     id="layer2"
     inkscape:label="DoNot"
     style="display:inline">
    <path
       d="m 49.497798,16.929985 c 0.908355,-0.50572 1.801064,-0.97113 2.738008,-1.442559 2.053301,-0.757344 4.252023,-1.133633 6.385431,-1.071386 3.009938,0.448576 5.832015,1.705516 8.245164,3.638704 1.521186,1.26255 2.451371,3.130723 2.582675,5.222406 1.489716,21.217272 -6.75384,42.578449 -22.075003,57.344783 -1.754695,1.661639 -4.050037,2.55699 -6.279616,2.364715 -1.657216,-0.155788 -3.267519,-0.432532 -4.757974,-0.964261 -3.482896,-1.281389 -6.343205,-3.735839 -8.318406,-6.960154 -0.252111,-0.376084 -0.282965,-0.94461 -0.09532,-1.428398 0.09388,-0.241876 0.29432,-0.488794 0.499962,-0.64093 L 40.426226,62.783704 c 0.603976,-0.531007 1.480703,-0.469243 1.951214,0.153876 l 2.867261,3.732653 c 0.163754,0.225852 0.366616,0.350914 0.585111,0.435657 0.746508,0.289558 1.568958,-0.15672 1.889528,-0.983186 l 0,0 12.017297,-30.982446 c 0.320558,-0.826465 0.01415,-1.710603 -0.732364,-2.000157 -0.254922,-0.09884 -0.548911,-0.09696 -0.822135,-0.0406 l -2.729757,0.773241 c -0.712992,0.164064 -1.365791,-0.205089 -1.615129,-0.85837 L 48.78619,18.926618 c -0.109027,-0.366952 -0.103562,-0.759072 0.04499,-1.142072 0.132919,-0.342676 0.393296,-0.635921 0.666616,-0.854573 z"
       id="path4"
       inkscape:connector-curvature="0" />
  </g>
</svg>
