<?xml version="1.0" encoding="UTF-8" standalone="no"?>
<!-- Created with Inkscape (http://www.inkscape.org/) -->

<svg
   xmlns:dc="http://purl.org/dc/elements/1.1/"
   xmlns:cc="http://creativecommons.org/ns#"
   xmlns:rdf="http://www.w3.org/1999/02/22-rdf-syntax-ns#"
   xmlns:svg="http://www.w3.org/2000/svg"
   xmlns="http://www.w3.org/2000/svg"
   xmlns:sodipodi="http://sodipodi.sourceforge.net/DTD/sodipodi-0.dtd"
   xmlns:inkscape="http://www.inkscape.org/namespaces/inkscape"
   width="100"
   height="100"
   id="svg2"
   version="1.1"
   inkscape:version="0.48.2 r9819"
   sodipodi:docname="trash.svg">
  <defs
     id="defs4" />
  <sodipodi:namedview
     id="base"
     pagecolor="#ffffff"
     bordercolor="#666666"
     borderopacity="1.0"
     inkscape:pageopacity="0.0"
     inkscape:pageshadow="2"
     inkscape:zoom="8"
     inkscape:cx="46.833955"
     inkscape:cy="64.86713"
     inkscape:document-units="px"
     inkscape:current-layer="layer4"
     showgrid="false"
     inkscape:window-width="1280"
     inkscape:window-height="968"
     inkscape:window-x="-4"
     inkscape:window-y="-4"
     inkscape:window-maximized="1"
     showguides="true"
     inkscape:guide-bbox="true" />
  <metadata
     id="metadata7">
    <rdf:RDF>
      <cc:Work
         rdf:about="">
        <dc:format>image/svg+xml</dc:format>
        <dc:type
           rdf:resource="http://purl.org/dc/dcmitype/StillImage" />
        <dc:title></dc:title>
      </cc:Work>
    </rdf:RDF>
  </metadata>
  <g
     inkscape:groupmode="layer"
     id="layer3"
     inkscape:label="DoNot"
     style="display:none">
    <path
       transform="translate(0.23357729,0.123564)"
       sodipodi:type="arc"
       style="fill:none;stroke-width:5;stroke-miterlimit:4;stroke-dasharray:none"
       id="path3781"
       sodipodi:cx="52.022858"
       sodipodi:cy="47.472069"
       sodipodi:rx="52.022858"
       sodipodi:ry="51.51778"
       d="m 104.04572,47.472069 a 52.022858,51.51778 0 1 1 -104.04572,0 52.022858,51.51778 0 1 1 104.04572,0 z" />
    <path
       sodipodi:type="arc"
       style="fill:none;stroke:#000000;stroke-width:5;stroke-miterlimit:4;stroke-opacity:1;stroke-dasharray:none"
       id="path3783"
       sodipodi:cx="36.996838"
       sodipodi:cy="28.910515"
       sodipodi:rx="31.440998"
       sodipodi:ry="25.885159"
       d="m 68.437836,28.910515 a 31.440998,25.885159 0 1 1 -62.8819965,0 31.440998,25.885159 0 1 1 62.8819965,0 z"
       transform="matrix(1.4693519,0,0,1.7700909,-4.1252457,-0.67442)" />
  </g>
  <g
     inkscape:groupmode="layer"
     id="layer4"
     inkscape:label="What">
    <path
       sodipodi:type="arc"
       style="fill:none;stroke:#000000;stroke-width:5;stroke-miterlimit:4;stroke-opacity:1;stroke-dasharray:none"
       id="path4141"
       sodipodi:cx="50.357143"
       sodipodi:cy="40.535713"
       sodipodi:rx="34.285717"
       sodipodi:ry="28.035713"
       d="M 16.071426,40.535712 A 34.285717,28.035713 0 0 1 84.641634,40.298556 L 50.357143,40.535713 z"
       sodipodi:start="3.1415927"
       sodipodi:end="6.2747261"
       transform="matrix(0.84025723,0,0,0.45643228,8.1870936,12.628537)" />
    <path
       sodipodi:type="arc"
       style="fill:none;stroke:#000000;stroke-width:5;stroke-miterlimit:4;stroke-opacity:1;stroke-dasharray:none"
       id="path4143"
       sodipodi:cx="48.739861"
       sodipodi:cy="13.821361"
       sodipodi:rx="8.3337584"
       sodipodi:ry="0.94701803"
       d="m 40.406102,13.821361 a 8.3337584,0.94701803 0 0 1 16.667219,-0.008 l -8.33346,0.008 z"
       sodipodi:start="3.1415927"
       sodipodi:end="6.2747261"
       transform="matrix(1.209993,0,0,1,-8.479779,2.4003814)" />
    <path
       sodipodi:type="arc"
       style="fill:none;stroke:#000000;stroke-width:5;stroke-miterlimit:4;stroke-opacity:1;stroke-dasharray:none"
       id="path4147"
       sodipodi:cx="37.628181"
       sodipodi:cy="78.597389"
       sodipodi:rx="13.889598"
       sodipodi:ry="11.427351"
       d="M 38.133813,90.017166 A 13.889598,11.427351 0 0 1 23.750317,78.127788"
       sodipodi:start="1.5343847"
       sodipodi:end="3.1826987"
       sodipodi:open="true"
       transform="matrix(0.9999861,0,0,1.0000024,2.499732,-0.25274112)" />
    <rect
       style="fill:#000000;fill-rule:evenodd;stroke:#000000;stroke-width:0.95644772px;stroke-linecap:butt;stroke-linejoin:miter;stroke-opacity:1"
       id="rect4196"
       width="52.289383"
       height="43.802551"
       x="24.194561"
       y="33.634148" />
    <rect
       style="fill:#000000;fill-rule:evenodd;stroke:#000000;stroke-width:0.79527593px;stroke-linecap:butt;stroke-linejoin:miter;stroke-opacity:1"
       id="rect4706"
       width="20.203051"
       height="4.2326126"
       x="40.784908"
       y="87.630707" />
    <path
       sodipodi:type="arc"
       style="fill:none;stroke:#000000;stroke-width:5;stroke-miterlimit:4;stroke-opacity:1;stroke-dasharray:none"
       id="path4147-7"
       sodipodi:cx="37.628181"
       sodipodi:cy="78.597389"
       sodipodi:rx="13.889598"
       sodipodi:ry="11.427351"
       d="M 38.133813,90.017166 A 13.889598,11.427351 0 0 1 23.750317,78.127788"
       sodipodi:start="1.5343847"
       sodipodi:end="3.1826987"
       sodipodi:open="true"
       transform="matrix(-0.9999861,0,0,1.0000024,98.221268,-0.27508742)" />
    <path
       style="fill:#000000;stroke:#000000;stroke-width:0.44642857;stroke-miterlimit:4;stroke-opacity:1;stroke-dasharray:none"
       d="M 39.388468,87.189693 C 36.980804,87.065754 34.671653,86.320448 32.756134,85.049028 31.950638,84.514383 30.500943,83.090285 30.073987,82.41424 29.308669,81.202432 28.916535,80.068355 28.807178,78.750554 l -0.06483,-0.78125 21.57306,0 21.573061,0 0,0.655361 c 0,2.215841 -1.490832,4.69842 -3.794643,6.318957 -1.178345,0.828867 -2.761165,1.515387 -4.419643,1.916941 l -1.026786,0.248608 -6.071428,0.02836 c -12.91169,0.06031 -16.800079,0.07211 -17.1875,0.05216 z"
       id="path4750"
       inkscape:connector-curvature="0" />
    <path
       style="fill:#000000;stroke:#000000;stroke-width:0.01972954;stroke-miterlimit:4;stroke-opacity:1;stroke-dasharray:none"
       d="m 27.936517,77.938149 -0.518887,-0.02019 0.546166,-10e-4 c 0.300391,-5.5e-4 0.546515,-5.5e-4 0.546942,0 4.27e-4,5.51e-4 0.0018,0.01032 0.0031,0.02172 l 0.0023,0.02072 -0.03039,-5.24e-4 c -0.01672,-2.88e-4 -0.263894,-0.0096 -0.549282,-0.02072 z"
       id="path4752"
       inkscape:connector-curvature="0" />
    <path
       sodipodi:type="arc"
       style="fill:#ffffff;stroke:#000000;stroke-width:5;stroke-miterlimit:4;stroke-opacity:0;stroke-dasharray:none"
       id="path4769"
       sodipodi:cx="91.671341"
       sodipodi:cy="50.628796"
       sodipodi:rx="8.207489"
       sodipodi:ry="8.586297"
       d="m 83.469663,50.951836 a 8.207489,8.586297 0 1 1 16.401896,0.03829"
       sodipodi:start="3.103961"
       sodipodi:end="6.3252796"
       sodipodi:open="true"
       transform="matrix(0.42337969,0,0,0.16794988,-5.3505154,30.243826)" />
    <path
       sodipodi:type="arc"
       style="fill:#ffffff;stroke:#000000;stroke-width:5;stroke-miterlimit:4;stroke-opacity:0;stroke-dasharray:none"
       id="path4769-9"
       sodipodi:cx="91.671341"
       sodipodi:cy="50.628796"
       sodipodi:rx="8.207489"
       sodipodi:ry="8.586297"
       d="m 83.487147,51.275256 a 8.207489,8.586297 0 1 1 16.348101,0.237215 l -8.163907,-0.883675 z"
       sodipodi:start="3.0662316"
       sodipodi:end="6.3862848"
       transform="matrix(0.42337969,0,0,-0.16794988,-5.3532129,92.40621)" />
    <rect
       style="fill:#ffffff;fill-opacity:1;fill-rule:evenodd;stroke:#ffffff;stroke-width:2.11921835;stroke-linecap:butt;stroke-linejoin:miter;stroke-miterlimit:4;stroke-opacity:1;stroke-dasharray:none"
       id="rect4830"
       width="4.8307815"
       height="43.16378"
       x="31.04661"
       y="39.691612" />
    <path
       sodipodi:type="arc"
       style="fill:#ffffff;stroke:#000000;stroke-width:5;stroke-miterlimit:4;stroke-opacity:0;stroke-dasharray:none"
       id="path4769-4"
       sodipodi:cx="91.671341"
       sodipodi:cy="50.628796"
       sodipodi:rx="8.207489"
       sodipodi:ry="8.586297"
       d="m 83.469663,50.951836 a 8.207489,8.586297 0 1 1 16.401896,0.03829"
       sodipodi:start="3.103961"
       sodipodi:end="6.3252796"
       sodipodi:open="true"
       transform="matrix(0.42337969,0,0,0.16794988,11.534133,30.635663)" />
    <path
       sodipodi:type="arc"
       style="fill:#ffffff;stroke:#000000;stroke-width:5;stroke-miterlimit:4;stroke-opacity:0;stroke-dasharray:none"
       id="path4769-9-5"
       sodipodi:cx="91.671341"
       sodipodi:cy="50.628796"
       sodipodi:rx="8.207489"
       sodipodi:ry="8.586297"
       d="m 83.469663,50.951836 a 8.207489,8.586297 0 1 1 16.401896,0.03829"
       sodipodi:start="3.103961"
       sodipodi:end="6.3252796"
       sodipodi:open="true"
       transform="matrix(0.42337969,0,0,-0.16794988,11.504915,92.86434)" />
    <rect
       style="fill:#ffffff;fill-opacity:1;fill-rule:evenodd;stroke:#ffffff;stroke-width:2.11921835;stroke-linecap:butt;stroke-linejoin:miter;stroke-miterlimit:4;stroke-opacity:1;stroke-dasharray:none"
       id="rect4830-5"
       width="4.8307815"
       height="43.16378"
       x="47.931252"
       y="40.08345" />
    <path
       sodipodi:type="arc"
       style="fill:#ffffff;stroke:#000000;stroke-width:5;stroke-miterlimit:4;stroke-opacity:0;stroke-dasharray:none"
       id="path4769-1"
       sodipodi:cx="91.671341"
       sodipodi:cy="50.628796"
       sodipodi:rx="8.207489"
       sodipodi:ry="8.586297"
       d="m 83.469663,50.951836 a 8.207489,8.586297 0 1 1 16.401896,0.03829"
       sodipodi:start="3.103961"
       sodipodi:end="6.3252796"
       sodipodi:open="true"
       transform="matrix(0.42337969,0,0,0.16794988,28.934064,30.885663)" />
    <path
       sodipodi:type="arc"
       style="fill:#ffffff;stroke:#000000;stroke-width:5;stroke-miterlimit:4;stroke-opacity:0;stroke-dasharray:none"
       id="path4769-9-7"
       sodipodi:cx="91.671341"
       sodipodi:cy="50.628796"
       sodipodi:rx="8.207489"
       sodipodi:ry="8.586297"
       d="m 83.469663,50.951836 a 8.207489,8.586297 0 1 1 16.401896,0.03829"
       sodipodi:start="3.103961"
       sodipodi:end="6.3252796"
       sodipodi:open="true"
       transform="matrix(0.42337969,0,0,-0.16794988,28.942415,93.114337)" />
    <rect
       style="fill:#ffffff;fill-opacity:1;fill-rule:evenodd;stroke:#ffffff;stroke-width:2.11921835;stroke-linecap:butt;stroke-linejoin:miter;stroke-miterlimit:4;stroke-opacity:1;stroke-dasharray:none"
       id="rect4830-1"
       width="4.8307815"
       height="43.16378"
       x="65.331184"
       y="40.33345" />
    <path
       sodipodi:type="arc"
       style="fill:#ffffff;stroke:#000000;stroke-width:5;stroke-miterlimit:4;stroke-opacity:0;stroke-dasharray:none"
       id="path4769-9-1"
       sodipodi:cx="91.671341"
       sodipodi:cy="50.628796"
       sodipodi:rx="8.207489"
       sodipodi:ry="8.586297"
       d="m 83.487147,51.275256 a 8.207489,8.586297 0 1 1 16.348101,0.237215 l -8.163907,-0.883675 z"
       sodipodi:start="3.0662316"
       sodipodi:end="6.3862848"
       transform="matrix(0.42337969,0,0,-0.16794988,11.528909,92.734574)" />
    <path
       sodipodi:type="arc"
       style="fill:#ffffff;stroke:#000000;stroke-width:5;stroke-miterlimit:4;stroke-opacity:0;stroke-dasharray:none"
       id="path4769-9-52"
       sodipodi:cx="91.671341"
       sodipodi:cy="50.628796"
       sodipodi:rx="8.207489"
       sodipodi:ry="8.586297"
       d="m 83.487147,51.275256 a 8.207489,8.586297 0 1 1 16.348101,0.237215 l -8.163907,-0.883675 z"
       sodipodi:start="3.0662316"
       sodipodi:end="6.3862848"
       transform="matrix(0.42337969,0,0,-0.16794988,28.937967,93.051191)" />
  </g>
</svg>
